<?xml version="1.0" encoding="UTF-8" standalone="no"?>
<svg
   height="16px"
   viewBox="0 0 16 16"
   width="16px"
   version="1.1"
   id="svg2"
   xmlns="http://www.w3.org/2000/svg"
   xmlns:svg="http://www.w3.org/2000/svg">
  <defs
     id="defs2" />
  <g
     id="layer4"
     style="display:inline">
    <path
       id="ac-eco"
       style="display:inline;fill:#f9f9f9;stroke:none"
       d="M 3,0 V 3 H 1.9765625 C 0.88281359,3 0,3.8828136 0,4.9765625 V 8 c 0,2.773435 2.2304718,5 5,5 0,1.644529 1.3554706,3 3,3 h 2 c 0.72356,0 1.363486,-0.397295 1.714844,-0.982422 C 10.283212,14.99786 9.1406088,14.690449 8.3554688,14 H 8 C 7.4375006,14 7,13.566405 7,13 7.1878778,13 7.3722991,12.988719 7.5546875,12.96875 7.0930079,12.08807 6.9765625,11.054459 6.9765625,10.029297 V 5.0292969 C 6.9760071,4.6602713 7.1787136,4.3209258 7.5039062,4.1464844 7.8291267,3.9719353 8.2240502,3.9907055 8.53125,4.1953125 c 0,0 1.0993966,0.7438713 3.46875,1.5039063 V 4.9765625 C 12,3.8828136 11.117186,3 10.023438,3 H 9 V 0 H 7 V 3 H 5 V 0 Z" />
    <path
       d="m 7.9765625,5.0283354 c 0,0 1.6523445,1.101562 5.0000015,2 1.886719,0.863281 2.4375,3.0624996 1.703125,5.0039056 L 9.9765626,9.0283355 15.750002,14.711929 c 0.753906,0.628906 -0.359376,1.839844 -1.199219,1 l -1.574219,-1.683594 c -4.1640629,0.425781 -5.000001,-1.417969 -5.000001,-4 z m 0,0"
       id="eco"
       style="display:inline;fill:#008000;stroke:none;stroke-width:2;stroke-linecap:round;stroke-linejoin:round;stroke-opacity:1;paint-order:markers stroke fill" />
    <circle
       style="font-variation-settings:normal;display:inline;opacity:1;vector-effect:none;fill:#f9f9f9;fill-opacity:1;stroke:none;stroke-width:2.56505;stroke-linecap:butt;stroke-linejoin:miter;stroke-miterlimit:4;stroke-dasharray:none;stroke-dashoffset:0;stroke-opacity:1;-inkscape-stroke:none;paint-order:markers stroke fill"
       id="fixed"
       cx="14.5"
       cy="1.5"
       r="1.5" />
  </g>
  <g
     id="layer3"
     style="display:none" />
  <g
     id="layer2"
     style="display:none" />
</svg>
