<?xml version="1.0" encoding="UTF-8" standalone="no"?>
<svg
   height="16px"
   viewBox="0 0 16 16"
   width="16px"
   version="1.1"
   id="svg2"
   xmlns="http://www.w3.org/2000/svg"
   xmlns:svg="http://www.w3.org/2000/svg">
  <defs
     id="defs2" />
  <g
     id="layer4"
     style="display:inline">
    <path
       id="ac-power"
       style="display:inline;fill:#f9f9f9;stroke:none"
       d="M 3,0 V 3 H 1.9765625 C 0.88281359,3 0,3.8828136 0,4.9765625 V 8 c 0,2.773435 2.2304718,5 5,5 0,1.644529 1.3554706,3 3,3 h 2 c 0.0799,0 0.158712,-0.0062 0.236328,-0.01563 -0.09616,-0.209254 -0.152344,-0.44097 -0.152344,-0.685547 V 14 H 10 8 7.9765625 V 13.998 C 7.425669,13.985909 7,13.558323 7,13 7.3345265,13 7.6607464,12.96631 7.9765625,12.9043 v -0.117188 -1.703125 c 0,-0.301229 0.082878,-0.61582 0.2539063,-0.894531 l 0.00391,-0.0039 L 11.748047,4.5625 C 11.793901,4.4891326 11.84527,4.4217668 11.900391,4.3574219 11.640891,3.5687903 10.900312,3 10.023438,3 H 9 V 0 H 7 V 3 H 5 V 0 Z M 14.927734,13.484375 13.355469,16 H 15 v -2 c 0,-0.178331 -0.0272,-0.350379 -0.07227,-0.515625 z" />
    <path
       d="m 13.168695,4.7637964 c -0.233198,0.00823 -0.449936,0.1316886 -0.573394,0.3292215 L 9.0836057,10.711732 c -0.074076,0.120715 -0.1069972,0.24966 -0.1069972,0.373118 v 0.702339 h 2.1070175 v 3.511696 c 0,0.705083 0.924562,0.96846 1.297681,0.373118 l 3.511696,-5.618715 C 15.967083,9.9325741 16,9.8036292 16,9.6801707 V 8.9778316 h -2.107018 v -3.511696 c 0,-0.3950658 -0.326478,-0.7133132 -0.724287,-0.7023392 z m 0,0"
       fill="#222222"
       id="power"
       style="display:inline;fill:#ffcc00;stroke:none;stroke-width:2;stroke-linejoin:miter;stroke-opacity:1;paint-order:markers stroke fill" />
  </g>
  <g
     id="layer3"
     style="display:none" />
  <g
     id="layer2"
     style="display:none" />
</svg>
