<?xml version="1.0" encoding="UTF-8" standalone="no"?>
<svg
   height="16px"
   viewBox="0 0 16 16"
   width="16px"
   version="1.1"
   id="svg2"
   xmlns="http://www.w3.org/2000/svg"
   xmlns:svg="http://www.w3.org/2000/svg">
  <defs
     id="defs2" />
  <g
     id="layer4"
     style="display:inline">
    <path
       id="bat-eco"
       style="display:inline;fill:#f9f9f9;stroke:none"
       d="M 5,0 C 4.0000012,0 4,1 4,1 V 2 H 3 C 3,2 2.2929685,1.9843751 1.5507812,2.3554688 0.81250099,2.7265614 0,3.6679703 0,5 v 8 c 0,0 -0.01562988,0.707031 0.35546875,1.449219 C 0.72656138,15.187499 1.6679703,16 3,16 h 6 c 0,0 0.7070315,0.01563 1.449219,-0.355469 0.275147,-0.138301 0.560683,-0.355151 0.810547,-0.642578 C 10.039673,14.927755 9.0555994,14.615692 8.3554688,14 H 3 C 2.4453126,14 2,13.554687 2,13 V 5 C 2,4.4453126 2.4453126,4 3,4 H 9 C 9.536357,4 9.9679891,4.4163004 9.9960938,4.9453125 10.519679,5.1751001 11.175244,5.4346556 12,5.6992188 V 5 C 12,3.6679703 11.187499,2.7265614 10.449219,2.3554688 9.7070315,1.9843751 9,2 9,2 H 8 V 1 C 8,1e-6 7,0 7,0 Z M 3,5 v 8 h 4.5703125 c -0.4753791,-0.887351 -0.59375,-1.933524 -0.59375,-2.970703 V 5.0292969 C 6.9765476,5.0194156 6.9782406,5.0098361 6.9785156,5 Z" />
    <path
       d="m 7.9765625,5.0283354 c 0,0 1.6523445,1.101562 5.0000015,2 1.886719,0.863281 2.4375,3.0624996 1.703125,5.0039056 L 9.9765626,9.0283355 15.750002,14.711929 c 0.753906,0.628906 -0.359376,1.839844 -1.199219,1 l -1.574219,-1.683594 c -4.1640629,0.425781 -5.000001,-1.417969 -5.000001,-4 z m 0,0"
       id="eco"
       style="display:inline;fill:#008000;stroke:none;stroke-width:2;stroke-linecap:round;stroke-linejoin:round;stroke-opacity:1;paint-order:markers stroke fill" />
  </g>
  <g
     id="layer3"
     style="display:none" />
  <g
     id="layer2"
     style="display:none" />
</svg>
