<?xml version="1.0" encoding="UTF-8" standalone="no"?>
<svg
   height="16px"
   viewBox="0 0 16 16"
   width="16px"
   version="1.1"
   id="svg2"
   xmlns="http://www.w3.org/2000/svg"
   xmlns:svg="http://www.w3.org/2000/svg">
  <defs
     id="defs2" />
  <g
     id="layer4"
     style="display:inline">
    <path
       id="bat-power"
       style="display:inline;fill:#f9f9f9;stroke:none"
       d="M 5,0 C 4.0000012,0 4,1 4,1 V 2 H 3 C 3,2 2.2929685,1.9843751 1.5507812,2.3554688 0.81250099,2.7265614 0,3.6679703 0,5 v 8 c 0,0 -0.01562988,0.707031 0.35546875,1.449219 C 0.72656138,15.187499 1.6679703,16 3,16 h 6 c 0,0 0.5314621,0.01 1.15625,-0.228516 -0.04569,-0.149965 -0.07227,-0.308218 -0.07227,-0.472656 V 13 H 10 c 0,0.554687 -0.4453126,1 -1,1 H 3 C 2.4453126,14 2,13.554687 2,13 V 5 C 2,4.4453126 2.4453126,4 3,4 h 6 c 0.5546874,0 1,0.4453126 1,1 V 7.359375 L 11.748047,4.5625 C 11.800867,4.477987 11.862737,4.4025606 11.927734,4.3300781 11.713699,3.3526774 11.056658,2.6607949 10.449219,2.3554688 9.7070315,1.9843751 9,2 9,2 H 8 V 1 C 8,1e-6 7,0 7,0 Z M 3,5 v 8 h 4.9765625 v -0.212891 -1.703125 c 0,-0.301229 0.082878,-0.61582 0.2539063,-0.894531 l 0.00391,-0.0039 L 9,8.9609375 V 5 Z" />
    <path
       d="m 13.168695,4.7637964 c -0.233198,0.00823 -0.449936,0.1316886 -0.573394,0.3292215 L 9.0836057,10.711732 c -0.074076,0.120715 -0.1069972,0.24966 -0.1069972,0.373118 v 0.702339 h 2.1070175 v 3.511696 c 0,0.705083 0.924562,0.96846 1.297681,0.373118 l 3.511696,-5.618715 C 15.967083,9.9325741 16,9.8036292 16,9.6801707 V 8.9778316 h -2.107018 v -3.511696 c 0,-0.3950658 -0.326478,-0.7133132 -0.724287,-0.7023392 z m 0,0"
       fill="#222222"
       id="power"
       style="display:inline;fill:#ffcc00;stroke:none;stroke-width:2;stroke-linejoin:miter;stroke-opacity:1;paint-order:markers stroke fill" />
    <circle
       style="font-variation-settings:normal;display:inline;opacity:1;vector-effect:none;fill:#f9f9f9;fill-opacity:1;stroke:none;stroke-width:2.56505;stroke-linecap:butt;stroke-linejoin:miter;stroke-miterlimit:4;stroke-dasharray:none;stroke-dashoffset:0;stroke-opacity:1;-inkscape-stroke:none;paint-order:markers stroke fill"
       id="fixed"
       cx="14.5"
       cy="1.5"
       r="1.5" />
  </g>
  <g
     id="layer3"
     style="display:none" />
  <g
     id="layer2"
     style="display:none" />
</svg>
