<?xml version="1.0" encoding="UTF-8" standalone="no"?>
<svg
   height="16px"
   viewBox="0 0 16 16"
   width="16px"
   version="1.1"
   id="svg2"
   sodipodi:docname="template.svg"
   inkscape:version="1.3.2 (091e20ef0f, 2023-11-25)"
   inkscape:export-filename="ac-pow-aut.svg"
   inkscape:export-xdpi="96"
   inkscape:export-ydpi="96"
   xmlns:inkscape="http://www.inkscape.org/namespaces/inkscape"
   xmlns:sodipodi="http://sodipodi.sourceforge.net/DTD/sodipodi-0.dtd"
   xmlns="http://www.w3.org/2000/svg"
   xmlns:svg="http://www.w3.org/2000/svg">
  <defs
     id="defs2" />
  <sodipodi:namedview
     id="namedview2"
     pagecolor="#5a5a5a"
     bordercolor="#000000"
     borderopacity="0.25"
     inkscape:showpageshadow="2"
     inkscape:pageopacity="0.0"
     inkscape:pagecheckerboard="true"
     inkscape:deskcolor="#5a5a5a"
     showguides="true"
     inkscape:zoom="45.254834"
     inkscape:cx="9.6011843"
     inkscape:cy="8.3416503"
     inkscape:window-width="1200"
     inkscape:window-height="1883"
     inkscape:window-x="0"
     inkscape:window-y="0"
     inkscape:window-maximized="1"
     inkscape:current-layer="layer4" />
  <g
     inkscape:groupmode="layer"
     id="layer4"
     inkscape:label="Final"
     style="display:inline">
    <path
       id="ac-eco"
       style="display:inline;fill:#f9f9f9;stroke:none"
       inkscape:label="ac-eco"
       d="M 3,0 V 3 H 1.9765625 C 0.88281359,3 0,3.8828136 0,4.9765625 V 8 c 0,2.773435 2.2304718,5 5,5 0,1.644529 1.3554706,3 3,3 h 2 c 0.72356,0 1.363486,-0.397295 1.714844,-0.982422 C 10.283212,14.99786 9.1406088,14.690449 8.3554688,14 H 8 C 7.4375006,14 7,13.566405 7,13 7.1878778,13 7.3722991,12.988719 7.5546875,12.96875 7.0930079,12.08807 6.9765625,11.054459 6.9765625,10.029297 V 5.0292969 C 6.9760071,4.6602713 7.1787136,4.3209258 7.5039062,4.1464844 7.8291267,3.9719353 8.2240502,3.9907055 8.53125,4.1953125 c 0,0 1.0993966,0.7438713 3.46875,1.5039063 V 4.9765625 C 12,3.8828136 11.117186,3 10.023438,3 H 9 V 0 H 7 V 3 H 5 V 0 Z"
       sodipodi:nodetypes="ccssscssccsccsccccssccccccc" />
    <path
       id="bat-eco"
       style="display:inline;fill:#f9f9f9;stroke:none"
       inkscape:label="bat-eco"
       d="M 5,0 C 4.0000012,0 4,1 4,1 V 2 H 3 C 3,2 2.2929685,1.9843751 1.5507812,2.3554688 0.81250099,2.7265614 0,3.6679703 0,5 v 8 c 0,0 -0.01562988,0.707031 0.35546875,1.449219 C 0.72656138,15.187499 1.6679703,16 3,16 h 6 c 0,0 0.7070315,0.01563 1.449219,-0.355469 0.275147,-0.138301 0.560683,-0.355151 0.810547,-0.642578 C 10.039673,14.927755 9.0555994,14.615692 8.3554688,14 H 3 C 2.4453126,14 2,13.554687 2,13 V 5 C 2,4.4453126 2.4453126,4 3,4 H 9 C 9.536357,4 9.9679891,4.4163004 9.9960938,4.9453125 10.519679,5.1751001 11.175244,5.4346556 12,5.6992188 V 5 C 12,3.6679703 11.187499,2.7265614 10.449219,2.3554688 9.7070315,1.9843751 9,2 9,2 H 8 V 1 C 8,1e-6 7,0 7,0 Z M 3,5 v 8 h 4.5703125 c -0.4753791,-0.887351 -0.59375,-1.933524 -0.59375,-2.970703 V 5.0292969 C 6.9765476,5.0194156 6.9782406,5.0098361 6.9785156,5 Z" />
    <path
       d="m 7.9765625,5.0283354 c 0,0 1.6523445,1.101562 5.0000015,2 1.886719,0.863281 2.4375,3.0624996 1.703125,5.0039056 L 9.9765626,9.0283355 15.750002,14.711929 c 0.753906,0.628906 -0.359376,1.839844 -1.199219,1 l -1.574219,-1.683594 c -4.1640629,0.425781 -5.000001,-1.417969 -5.000001,-4 z m 0,0"
       id="eco"
       style="display:inline;fill:#008000;stroke:none;stroke-width:2;stroke-linecap:round;stroke-linejoin:round;stroke-opacity:1;paint-order:markers stroke fill"
       inkscape:label="eco" />
    <path
       id="ac-power"
       style="display:inline;fill:#f9f9f9;stroke:none"
       inkscape:label="ac-power"
       d="M 3,0 V 3 H 1.9765625 C 0.88281359,3 0,3.8828136 0,4.9765625 V 8 c 0,2.773435 2.2304718,5 5,5 0,1.644529 1.3554706,3 3,3 h 2 c 0.0799,0 0.158712,-0.0062 0.236328,-0.01563 -0.09616,-0.209254 -0.152344,-0.44097 -0.152344,-0.685547 V 14 H 10 8 7.9765625 V 13.998 C 7.425669,13.985909 7,13.558323 7,13 7.3345265,13 7.6607464,12.96631 7.9765625,12.9043 v -0.117188 -1.703125 c 0,-0.301229 0.082878,-0.61582 0.2539063,-0.894531 l 0.00391,-0.0039 L 11.748047,4.5625 C 11.793901,4.4891326 11.84527,4.4217668 11.900391,4.3574219 11.640891,3.5687903 10.900312,3 10.023438,3 H 9 V 0 H 7 V 3 H 5 V 0 Z M 14.927734,13.484375 13.355469,16 H 15 v -2 c 0,-0.178331 -0.0272,-0.350379 -0.07227,-0.515625 z" />
    <path
       id="bat-power"
       style="display:inline;fill:#f9f9f9;stroke:none"
       inkscape:label="bat-power"
       d="M 5,0 C 4.0000012,0 4,1 4,1 V 2 H 3 C 3,2 2.2929685,1.9843751 1.5507812,2.3554688 0.81250099,2.7265614 0,3.6679703 0,5 v 8 c 0,0 -0.01562988,0.707031 0.35546875,1.449219 C 0.72656138,15.187499 1.6679703,16 3,16 h 6 c 0,0 0.5314621,0.01 1.15625,-0.228516 -0.04569,-0.149965 -0.07227,-0.308218 -0.07227,-0.472656 V 13 H 10 c 0,0.554687 -0.4453126,1 -1,1 H 3 C 2.4453126,14 2,13.554687 2,13 V 5 C 2,4.4453126 2.4453126,4 3,4 h 6 c 0.5546874,0 1,0.4453126 1,1 V 7.359375 L 11.748047,4.5625 C 11.800867,4.477987 11.862737,4.4025606 11.927734,4.3300781 11.713699,3.3526774 11.056658,2.6607949 10.449219,2.3554688 9.7070315,1.9843751 9,2 9,2 H 8 V 1 C 8,1e-6 7,0 7,0 Z M 3,5 v 8 h 4.9765625 v -0.212891 -1.703125 c 0,-0.301229 0.082878,-0.61582 0.2539063,-0.894531 l 0.00391,-0.0039 L 9,8.9609375 V 5 Z" />
    <path
       d="m 13.168695,4.7637964 c -0.233198,0.00823 -0.449936,0.1316886 -0.573394,0.3292215 L 9.0836057,10.711732 c -0.074076,0.120715 -0.1069972,0.24966 -0.1069972,0.373118 v 0.702339 h 2.1070175 v 3.511696 c 0,0.705083 0.924562,0.96846 1.297681,0.373118 l 3.511696,-5.618715 C 15.967083,9.9325741 16,9.8036292 16,9.6801707 V 8.9778316 h -2.107018 v -3.511696 c 0,-0.3950658 -0.326478,-0.7133132 -0.724287,-0.7023392 z m 0,0"
       fill="#222222"
       id="power"
       style="display:inline;fill:#ffcc00;stroke:none;stroke-width:2;stroke-linejoin:miter;stroke-opacity:1;paint-order:markers stroke fill"
       inkscape:label="power" />
    <circle
       style="font-variation-settings:normal;display:inline;opacity:1;vector-effect:none;fill:#f9f9f9;fill-opacity:1;stroke:none;stroke-width:2.56505;stroke-linecap:butt;stroke-linejoin:miter;stroke-miterlimit:4;stroke-dasharray:none;stroke-dashoffset:0;stroke-opacity:1;-inkscape-stroke:none;paint-order:markers stroke fill"
       id="fixed"
       cx="14.5"
       cy="1.5"
       inkscape:label="fixed"
       r="1.5" />
  </g>
  <g
     inkscape:groupmode="layer"
     id="layer3"
     inkscape:label="Template"
     style="display:none">
    <path
       d="M 5,0 C 4.0000002,0 4.0000002,1 4.0000002,1 v 1 h -1 c 0,0 -0.707031,-0.015625 -1.449219,0.355469 C 0.8125002,2.726562 2e-7,3.667969 2e-7,5 v 8 c 0,0 -0.01563,0.707031 0.355469,1.449219 C 0.7265622,15.1875 1.6679692,16 3.0000002,16 H 9 c 0,0 0.707031,0.01563 1.449219,-0.355469 C 11.1875,15.273438 12,14.332031 12,13 V 5 C 12,3.667969 11.1875,2.726562 10.449219,2.355469 9.707031,1.984375 9,2 9,2 H 8 V 1 C 8,0 7,0 7,0 Z M 3.0000002,4 H 9 c 0.554688,0 1,0.445312 1,1 v 8 c 0,0.554688 -0.445312,1 -1,1 H 3.0000002 c -0.554688,0 -1,-0.445312 -1,-1 V 5 c 0,-0.554688 0.445312,-1 1,-1 z M 9,5 H 3.0000002 v 8 H 9 Z"
       fill="#222222"
       id="path1-3"
       style="display:inline;fill:#222222;stroke:none"
       sodipodi:nodetypes="sccccsccsccsscccscssssssssssccccc"
       inkscape:label="bat" />
    <path
       d="M 3,0 V 3 H 1.976562 C 0.882812,3 0,3.882812 0,4.976562 V 8 c 0,2.773438 2.230469,5 5,5 0,1.644531 1.355469,3 3,3 h 2 c 1.09375,0 2,-0.90625 2,-2 h 1 v 2 h 2 v -2 c 0,-1.09375 -0.90625,-2 -2,-2 h -1 c -1.09375,0 -2,0.90625 -2,2 H 8 C 7.4375,14 7,13.566406 7,13 9.769531,13 12,10.773438 12,8 V 4.976562 C 12,3.882812 11.117188,3 10.023438,3 H 9 V 0 H 7 V 3 H 5 V 0 Z"
       fill="#222222"
       id="path1-62"
       sodipodi:nodetypes="ccssscssccccssscscsssccccccc"
       style="display:inline;fill:#222222;stroke:none"
       inkscape:label="ac" />
    <path
       style="color:#000000;display:inline;fill:#4d4d4d;-inkscape-stroke:none;paint-order:markers stroke fill"
       d="M 13.132813,3.7636719 C 12.569156,3.7835644 12.051038,4.0777133 11.748047,4.5625 l -3.513672,5.623047 -0.00391,0.0039 c -0.1710289,0.278711 -0.2539063,0.593301 -0.2539063,0.894531 v 1.703125 H 10.08398 v 2.511719 c 0,0.789635 0.579549,1.44777 1.232422,1.634766 0.652873,0.186996 1.492933,-0.06164 1.91211,-0.730469 l 3.515625,-5.623047 0.002,-0.0039 C 16.917148,10.297438 17,9.980895 17,9.6796875 V 7.9785156 H 14.892578 V 5.4667969 c 0,-0.9459908 -0.806344,-1.7292107 -1.751953,-1.703125 h -0.0039 z"
       id="path6"
       sodipodi:nodetypes="ccccsccsscccsccsccc"
       inkscape:label="power-u" />
    <path
       style="color:#000000;display:inline;fill:#4d4d4d;stroke-linecap:round;stroke-linejoin:round;-inkscape-stroke:none;paint-order:markers stroke fill"
       d="M 7.5039062,4.1464844 C 7.1787132,4.320926 6.9760071,4.660271 6.9765625,5.0292969 v 5.0000001 c 0,1.398931 0.2116756,2.813827 1.2304688,3.833984 0.9200122,0.921244 2.4008347,1.239958 4.3105467,1.138672 l 1.302735,1.392578 c 0.0077,0.0086 0.01548,0.01706 0.02344,0.02539 0.373033,0.373034 0.891785,0.590261 1.378906,0.578125 0.487121,-0.01214 0.909379,-0.217802 1.216797,-0.511719 0.307419,-0.293917 0.527344,-0.691688 0.556641,-1.173828 0.0293,-0.48214 -0.202814,-1.033247 -0.605469,-1.369141 L 16.451172,14 15.207031,12.775391 c 0.170517,-0.08774 0.312213,-0.222658 0.408203,-0.388672 C 16.496567,10.056812 15.79664,7.2191355 13.392578,6.1191406 13.342156,6.0959579 13.289893,6.0770123 13.236328,6.0625 10.006749,5.1957515 8.53125,4.1953125 8.53125,4.1953125 8.2240499,3.9907053 7.829127,3.9719352 7.5039062,4.1464844 Z"
       id="path8"
       sodipodi:nodetypes="ccsscccssscccccccc"
       inkscape:label="eco-u" />
  </g>
  <g
     inkscape:groupmode="layer"
     id="layer2"
     inkscape:label="Other"
     style="display:none">
    <path
       d="m -23.656744,0 c -1,0 -1,1 -1,1 v 1 h -1 c 0,0 -0.707031,-0.015625 -1.449219,0.355469 -0.738281,0.371093 -1.550781,1.3125 -1.550781,2.644531 v 8 c 0,0 -0.01563,0.707031 0.355469,1.445312 C -27.930182,15.1875 -26.988775,16 -25.656744,16 h 6 c 0,0 0.707031,0.01563 1.449219,-0.355469 0.28125,-0.140625 0.578125,-0.371093 0.832031,-0.671875 -1.203125,-0.07031 -2.175781,-0.375 -2.875,-0.972656 h -5.40625 c -0.554688,0 -1,-0.445312 -1,-1 V 5 c 0,-0.554688 0.445312,-1 1,-1 h 6 c 0.523438,0 0.945312,0.398438 0.992188,0.90625 0.523437,0.230469 1.179687,0.488281 2.007812,0.753906 V 5 c 0,-1.332031 -0.8125,-2.273438 -1.550781,-2.644531 C -18.949713,1.984375 -19.656744,2 -19.656744,2 h -1 V 1 c 0,-1 -1,-1 -1,-1 z m -2,7 v 6 h 4.605469 c -0.488281,-0.894531 -0.609375,-1.953125 -0.605469,-3 V 7 Z m 0,0"
       id="path2"
       style="fill:#222222" />
    <path
       d="m 44.969892,-0.50184036 c 0,0 -0.710938,-0.015625 -1.449219,0.35546904 C 42.782392,0.22472173 41.969892,1.1661287 41.969892,2.4981597 V 12.49816 c 0,0 -0.01563,0.707031 0.355469,1.449219 0.367187,0.738281 1.308593,1.550781 2.644531,1.550781 h 6 c 0,0 0.707031,0.01563 1.445312,-0.355469 0.738282,-0.371093 1.554688,-1.3125 1.554688,-2.644531 V 2.4981597 c 0,-1.332031 -0.816406,-2.27343797 -1.554688,-2.64453102 -0.738281,-0.37109404 -1.445312,-0.35546904 -1.445312,-0.35546904 z m 0,2.00000006 h 6 c 0.550781,0 1,0.445312 1,1 V 12.49816 c 0,0.554688 -0.449219,1 -1,1 h -6 c -0.554688,0 -1,-0.445312 -1,-1 V 2.4981597 c 0,-0.554688 0.445312,-1 1,-1 z m 0,1 v 1 h 4 v -1 z m 5.472656,0 c -0.265625,0.011719 -0.472656,0.230469 -0.472656,0.5 0,0.277344 0.222656,0.5 0.5,0.5 0.277344,0 0.5,-0.222656 0.5,-0.5 0,-0.277344 -0.222656,-0.5 -0.5,-0.5 h -0.02734 z m -1.597656,1.992188 c -0.04297,0 -0.08594,0.00391 -0.125,0.00781 -0.179688,0.050781 -0.34375,0.148438 -0.46875,0.28125 l -3.03125,3 c -0.238281,0.230469 -0.347656,0.582031 -0.28125,0.90625 v 0.8125002 h 2.46875 l -1.1875,1.2734381 c -0.214844,0.21875 -0.320312,0.539062 -0.28125,0.84375 v 0.09375 0.78125 h 1 c 0.265625,0.0039 0.527344,-0.09766 0.71875,-0.28125 l 3,-2.9921861 c 0.183594,-0.1914062 0.289062,-0.4531252 0.28125,-0.7187502 0.0039,-0.042969 0.0039,-0.082031 0,-0.125 v -0.875 h -2.5625 l 1.3125,-1.28125 c 0.214844,-0.21875 0.320312,-0.539062 0.28125,-0.84375 v -0.09375 -0.78125 h -0.9375 -0.0625 c -0.04297,-0.00391 -0.08594,-0.00781 -0.125,-0.00781 z"
       fill="#222222"
       id="path1-6"
       sodipodi:nodetypes="cssccscssssccssssssssscccccssssscsscccccccccccccccccccccccss" />
    <path
       id="path2-3"
       style="font-variation-settings:normal;opacity:1;vector-effect:none;fill:#ffcc00;fill-opacity:1;stroke:#ffffff;stroke-width:2;stroke-linecap:butt;stroke-linejoin:miter;stroke-miterlimit:4;stroke-dasharray:none;stroke-dashoffset:0;stroke-opacity:1;-inkscape-stroke:none;paint-order:markers stroke fill;stop-color:#000000;stop-opacity:1"
       d="m 25.72805,4.5304495 c -1.374999,0 -2.5,1.1484393 -2.5,2.5195307 v 0.480469 c -0.476562,0 -1,0.503907 -1,1.015625 v 2.9843748 h 7 V 8.5304492 c 0,-0.449219 -0.457032,-1 -0.996094,-1 h -0.0039 v -0.480469 c 0,-1.3710914 -1.125001,-2.5195307 -2.5,-2.5195307 z m 0,1.9999997 c 0.289061,0 0.5,0.207032 0.5,0.519531 v 0.480469 h -1 v -0.480469 c 0,-0.312499 0.210938,-0.519531 0.5,-0.519531 z" />
    <path
       d="m 35.254883,5.4872693 -2.0625,5.9921877 h 1.585938 l 0.300781,-1.019532 h 2.09375 l 0.324219,1.019532 h 1.644531 L 37.16504,5.4872693 Z m 0.855469,1.53125 0.648438,2.09375 h -1.273438 z m 0,0"
       id="path1-5"
       style="font-variation-settings:normal;opacity:1;vector-effect:none;fill:#00ffff;fill-opacity:1;stroke:#ffffff;stroke-width:2;stroke-linecap:butt;stroke-linejoin:miter;stroke-miterlimit:4;stroke-dasharray:none;stroke-dashoffset:0;stroke-opacity:1;-inkscape-stroke:none;paint-order:markers stroke fill;stop-color:#000000;stop-opacity:1" />
  </g>
</svg>
